<?xml version="1.0" encoding="UTF-8"?>
<svg width="200px" height="200px" viewBox="0 0 200 200" version="1.1" xmlns="http://www.w3.org/2000/svg" xmlns:xlink="http://www.w3.org/1999/xlink">
    <!-- Generator: Sketch 52 (66869) - http://www.bohemiancoding.com/sketch -->
    <title>Shape</title>
    <desc>Created with Sketch.</desc>
    <defs>
        <linearGradient x1="50%" y1="0%" x2="50%" y2="100%" id="linearGradient-1">
            <stop stop-color="#12D6FF" offset="0%"></stop>
            <stop stop-color="#0D64FE" offset="100%"></stop>
        </linearGradient>
    </defs>
    <g id="Page-1" stroke="none" stroke-width="1" fill="none" fill-rule="evenodd">
        <g id="Artboard" fill="url(#linearGradient-1)" fill-rule="nonzero">
            <path d="M100,0 C155.23125,0 200,44.76875 200,100 C200,155.23125 155.23125,200 100,200 C44.76875,200 0,155.23125 0,100 C0,44.76875 44.76875,0 100,0 Z M74.03125,23.53125 C34.59375,23.53125 13.84375,47.40625 11.7625,95.15625 C20.06875,64.0125 32.51875,48.4375 49.125,48.4375 C58.4625,48.4375 61.575,54.6625 61.575,60.89375 C61.575,73.35 36.66875,73.35 36.66875,104.49375 C36.66875,116.95 42.9,120.0625 42.9,129.40625 C42.9,138.75 27.33125,148.09375 14.875,129.40625 C21.10625,157.43125 55.35,182.34375 92.7125,182.34375 C130.06875,182.34375 154.975,160.55 154.975,135.63125 C154.975,110.71875 136.29375,95.15 114.5,95.15 C92.7125,95.15 80.25625,107.60625 80.25625,123.175 C80.25625,138.75 92.7125,144.975 95.81875,144.975 C86.48125,126.2875 98.9375,116.95 111.3875,116.95 C123.0125,116.95 123.7875,130.5125 123.8375,134.85625 L123.8375,135.63125 C123.8375,138.75 120.73125,160.55 98.9375,160.55 C64.6875,160.55 55.35,135.63125 55.35,116.95 C55.35,98.2625 70.9125,79.575 92.7125,79.575 C123.8375,79.575 136.29375,101.375 161.2,101.375 C198.5625,101.375 189.21875,57.78125 179.88125,42.20625 C186.10625,64.00625 179.88125,79.58125 167.43125,79.58125 C130.06875,79.58125 133.18125,23.51875 74.03125,23.51875 L74.03125,23.53125 Z" id="Shape"></path>
        </g>
    </g>
</svg>